<?xml version="1.0" encoding="UTF-8"?><svg id="Capa_1" xmlns="http://www.w3.org/2000/svg" viewBox="0 0 120 120"><defs><style>.cls-1{fill:#382884;}</style></defs><rect class="cls-1" x="43.21" y="60.61" width="5.67" height="4.65"/><path class="cls-1" d="m48.88,55.96h-5.67c0-4.61,1.2-7.21,4.6-9.92,1.33-1.06,2.38-2.84,2.38-4.04s-.39-2.26-1.14-3c-.75-.75-1.78-1.14-3-1.14-2.55,0-4.14,1.59-4.14,4.14h-5.67c0-5.68,4.13-9.81,9.81-9.81,2.72,0,5.21,1,7.01,2.8,1.81,1.81,2.8,4.3,2.8,7.01,0,3.59-2.43,6.8-4.51,8.46-2.03,1.62-2.47,2.6-2.47,5.49Z"/><path class="cls-1" d="m18.25,92.46c-1.33,0-2.62-.51-3.63-1.48-1.53-1.47-2.05-3.63-1.35-5.62,1.78-5.05,1.99-10.88,1.97-13.77-7.47-6.41-11.56-14.81-11.56-23.78C3.67,28.94,22.16,13.59,44.88,13.59s41.21,15.36,41.21,34.23-18.49,34.23-41.21,34.23c-2.9,0-5.87-.28-8.84-.83-5.3,5.14-10.63,8.79-15.86,10.87-.64.25-1.29.38-1.94.38ZM44.88,19.26c-19.6,0-35.54,12.81-35.54,28.56,0,7.62,3.72,14.8,10.47,20.21l1.01.81.05,1.3c.08,2.19.16,9.65-2.01,16.37,4.57-1.98,9.48-5.54,14.25-10.35l1.09-1.1,1.52.33c3.09.66,6.17,1,9.16,1,19.6,0,35.54-12.81,35.54-28.56s-15.94-28.56-35.54-28.56Z"/><path class="cls-1" d="m101.74,106.41c-.69,0-1.39-.15-2.05-.45-4.7-2.12-9.51-5.71-14.31-10.69-2.68.48-5.34.72-7.94.72-8.94,0-17.66-2.64-24.57-7.42-1.29-.89-1.61-2.66-.71-3.94s2.66-1.61,3.94-.71c5.97,4.14,13.54,6.41,21.34,6.41,2.71,0,5.51-.31,8.33-.91l1.58-.34,1.1,1.18c4.38,4.74,8.7,8.17,12.84,10.19-1.65-5.41-2.1-11.31-2.18-15.33l-.03-1.42,1.12-.88c6.74-5.25,10.45-12.32,10.45-19.89,0-11.69-9.01-22.11-22.42-25.92-1.51-.43-2.38-2-1.95-3.5.43-1.51,1.99-2.38,3.5-1.95,15.87,4.51,26.54,17.12,26.54,31.37,0,8.78-4.17,17.25-11.5,23.45.2,4.72.88,9.15,1.94,12.58.69,2.23.04,4.65-1.67,6.16-.96.85-2.15,1.29-3.35,1.29Z"/></svg>