<?xml version="1.0" encoding="UTF-8"?><svg id="Capa_1" xmlns="http://www.w3.org/2000/svg" viewBox="0 0 120 120"><defs><style>.cls-1{fill:#382884;}</style></defs><path class="cls-1" d="m25.48,54.1c-.55,0-1.11-.19-1.57-.58-1.01-.87-1.13-2.39-.26-3.4,4.16-4.86,9.57-7.54,15.22-7.54,3.95,0,7.83,1.32,11.23,3.81,1.07.79,1.31,2.29.52,3.37-.79,1.07-2.29,1.31-3.37.52-2.6-1.91-5.42-2.88-8.38-2.88-4.22,0-8.33,2.08-11.56,5.85-.48.56-1.15.84-1.83.84Z"/><path class="cls-1" d="m38.87,69.72c-17.33,0-31.43-14.1-31.43-31.42S21.54,6.87,38.87,6.87s31.43,14.1,31.43,31.43c0,4.19-.81,8.25-2.41,12.09-.51,1.23-1.92,1.81-3.15,1.3-1.23-.51-1.81-1.92-1.3-3.15,1.35-3.24,2.04-6.69,2.04-10.23,0-14.67-11.94-26.61-26.61-26.61s-26.61,11.94-26.61,26.61,11.94,26.61,26.61,26.61c3.56,0,7.01-.69,10.27-2.05,1.23-.51,2.64.07,3.15,1.29.51,1.23-.06,2.64-1.29,3.15-3.85,1.61-7.93,2.43-12.13,2.43Z"/><path class="cls-1" d="m110.15,97.43c-.83,0-1.64-.43-2.09-1.21l-1.12-1.93c-1.01-1.76-.96-3.85-.91-6.07.05-2.09.1-4.26-.8-5.83l-11.16-19.33c-.34-.58-.96-.8-1.3-.88-.55-.13-1.14-.08-1.5.13l-3.87,2.23c-1.15.67-2.63.27-3.29-.88-.57-.98-2.11-1.16-2.81-.75l-3.87,2.23c-.71.41-1.59.43-2.32.05-.49-.26-1.85-.26-3.2.55l-3.34,1.93c-1.15.67-2.63.27-3.29-.88-.67-1.15-.27-2.63.88-3.29l3.3-1.91c2.08-1.24,4.49-1.66,6.5-1.18l2.91-1.68c2.22-1.28,5.5-1.16,7.79.66l2.17-1.25c1.43-.82,3.26-1.06,5.01-.65,1.9.45,3.46,1.57,4.38,3.17l11.16,19.33c1.58,2.74,1.51,5.85,1.45,8.35-.03,1.39-.07,2.96.27,3.55l1.12,1.93c.67,1.15.27,2.63-.88,3.29-.38.22-.79.32-1.2.32Z"/><path class="cls-1" d="m81.81,75.13c-.83,0-1.64-.43-2.09-1.21l-5.58-9.67c-.67-1.15-.27-2.63.88-3.29,1.15-.66,2.63-.27,3.29.88l5.58,9.67c.67,1.15.27,2.63-.88,3.29-.38.22-.79.32-1.2.32Z"/><path class="cls-1" d="m90.66,72.6c-.83,0-1.64-.43-2.09-1.21l-4.46-7.73c-.67-1.15-.27-2.63.88-3.29,1.15-.67,2.63-.27,3.29.88l4.46,7.73c.67,1.15.27,2.63-.88,3.29-.38.22-.79.32-1.2.32Z"/><path class="cls-1" d="m83.13,113.13c-.83,0-1.64-.43-2.09-1.21l-1.25-2.17c-.36-.63-.52-.91-2.61-1.47-4.43-.99-8.35-3.4-12.15-5.73-3.16-1.94-6.43-3.95-10.01-5.11-2.06-.67-3.7-2.29-4.39-4.33-.67-1.99-.38-4.11.81-5.81,1.68-2.42,4.56-3.81,7.37-3.59,1.97.17,4.52.82,6.8,1.5l-14.79-25.61c-.91-1.62-1.14-3.46-.66-5.22.49-1.75,1.63-3.22,3.23-4.12,3.32-1.88,7.53-.73,9.38,2.55l13.38,23.18c.67,1.15.27,2.63-.88,3.29-1.15.67-2.63.27-3.29-.88l-13.39-23.2c-.56-.99-1.82-1.31-2.83-.74-.48.27-.82.7-.96,1.21s-.07,1.06.2,1.54l17.04,29.51c.64,1.11.53,2.48-.28,3.48-.82,1-2.14,1.38-3.37.97l-.13-.04c-2.11-.71-7.04-2.37-9.86-2.61-1.1-.1-2.31.52-3.01,1.53-.42.6-.3,1.21-.2,1.53.2.61.69,1.09,1.31,1.29,4.12,1.33,7.64,3.5,11.04,5.59,3.62,2.22,7.04,4.32,10.78,5.16,3.52.94,4.62,1.96,5.64,3.76l1.24,2.15c.66,1.15.27,2.63-.88,3.29-.38.22-.79.32-1.2.32Z"/><path class="cls-1" d="m32.17,38.47c-1.33,0-2.41-1.08-2.41-2.41v-11.16c0-1.33,1.08-2.41,2.41-2.41s2.41,1.08,2.41,2.41v11.16c0,1.33-1.08,2.41-2.41,2.41Z"/><path class="cls-1" d="m45.57,38.47c-1.33,0-2.41-1.08-2.41-2.41v-11.16c0-1.33,1.08-2.41,2.41-2.41s2.41,1.08,2.41,2.41v11.16c0,1.33-1.08,2.41-2.41,2.41Z"/></svg>