<?xml version="1.0" encoding="UTF-8"?><svg id="Capa_1" xmlns="http://www.w3.org/2000/svg" viewBox="0 0 120 120"><defs><style>.cls-1{fill:#382884;stroke:#382884;stroke-miterlimit:10;stroke-width:.85px;}</style></defs><path class="cls-1" d="m90.8,53.4c-1.29,4.86-3.36,9.33-6.77,13.02-1.88,2.03-3.99,3.88-6.19,5.56-1.42,1.08-2.12,2.23-2.05,4,.08,2.07-.02,4.14.03,6.21.06,2.15-.68,3.85-2.45,5.14-1.44,1.05-1.41,1.51-.11,2.93.97,1.06,1.05,1.84-.09,2.83-1.05.91-1.19,1.46-.04,2.41,1.17.98,1.06,1.72.17,2.83-.51.64-.98,1.38-1.23,2.15-1,3.13-3.34,5.11-6.66,5.21-3.58.11-7.17.09-10.75,0-2.75-.07-4.83-1.37-6.19-3.82-.36-.64-.95-1.2-1.52-1.68-1.17-.99-1.32-1.88-.09-2.92,1.09-.92,1.1-1.49.04-2.44-1.25-1.13-1.17-1.65.01-2.94,1.25-1.36,1.13-3.57-.34-4.65-1.61-1.18-2.37-2.71-2.34-4.7.03-2.07-.08-4.14.03-6.21.1-2.04-.67-3.36-2.37-4.55-17.24-12.09-18.14-37.19-1.87-50.46,17.44-14.22,43.76-6.15,50.27,15.41.16.53.35,1.05.53,1.57,4.31-2.22,8.87-.9,13.29-1.1,1.34-.06,1.91,1.23,1.31,2.63-.7,1.6-1.49,3.17-2.33,4.71-.51.93-.54,1.74,0,2.68.78,1.38,1.48,2.82,2.13,4.27.94,2.07.37,3.1-1.82,3.15-3.1.07-6.22.12-9.31-.03-1.01-.05-2-.73-3.28-1.23Zm-9.64-9.19c1.02,0,1.88,0,2.74,0,3.03-.04,4.26-1.64,3.56-4.62-3.21-13.83-15.94-23-30.12-21.71-14.29,1.3-25.47,13.39-25.5,27.72-.02,9.85,4.1,17.7,12.11,23.39,2.61,1.85,3.87,4.06,3.7,7.22-.11,1.98-.06,3.98,0,5.97.05,1.86.57,2.44,2.46,2.46,6.61.05,13.21.05,19.82,0,1.87-.01,2.39-.6,2.45-2.47.06-1.83.14-3.67,0-5.49-.28-3.54,1.13-5.95,4.08-7.99,5.93-4.11,9.56-9.9,11.13-16.95.52-2.34-.81-4.04-3.21-4.13-1.02-.04-2.04,0-3.22,0-.89,6.13-3.36,11.25-8.24,14.97-4.95,3.78-10.54,5.07-16.66,4.07-9.91-1.62-17.28-10.49-17.29-20.75-.01-10.17,7.29-19.01,17.05-20.72,5.23-.92,10.17-.15,14.72,2.57,6.14,3.67,9.41,9.28,10.42,16.46Zm-3.88-.01c-.16-8.88-8.88-16.34-18.03-15.89-10.02.5-17.7,9.2-16.83,19.08.89,10.04,10,17.31,20.04,15.98,8.04-1.06,15.69-9.2,14.61-15.59h-6.59c-.21.66-.34,1.19-.55,1.7-1.28,3.22-3.5,5.46-6.86,6.47-4.27,1.29-8.9-.23-11.51-3.73-2.63-3.52-2.76-8.4-.33-12.09,2.45-3.73,6.84-5.5,11.23-4.43,3.67.9,6.16,3.17,7.47,6.73.29.79.31,1.8,1.55,1.78,1.89-.02,3.78,0,5.8,0Zm-10.71-.14c-.95-3.68-4.08-5.68-7.76-5.09-3.36.54-5.97,3.68-5.89,7.08.09,3.62,3.02,6.66,6.65,6.88,3.47.2,6.33-1.91,6.91-5.18-1.58-.19-3.01-.35-4.43.88-1.53,1.32-3.46.95-4.68-.48-1.1-1.29-1.06-3.34.09-4.58,1.28-1.38,3.22-1.67,4.7-.32,1.42,1.31,2.85.93,4.41.81Zm22.33,1.51c3.96,5.39,7.24,6.77,12.02,5.18-.44-.93-.8-1.89-1.33-2.74-.89-1.43-.91-2.76,0-4.21.55-.89.87-1.92,1.45-3.24-2.34,0-4.23-.06-6.11.04-.56.03-1.17.44-1.61.84-1.47,1.31-2.88,2.69-4.42,4.14Zm-20.33,42.71h-17.26v3.14c5.63-.41,11.07-.8,16.51-1.22,1.22-.1,1-.95.75-1.92Zm.33,10.64c-5.93.43-11.41.83-17.14,1.24.71,1.53,1.66,2.01,2.83,2.02,3.58.04,7.16.06,10.74,0,1.8-.02,2.87-1.05,3.57-3.27Zm-.36-3.47c.59-1.71-.32-1.73-1.4-1.65-4.12.29-8.24.56-12.36.84-.79.05-1.62.02-2.36.24-.47.14-.82.69-1.23,1.05.43.24.85.67,1.28.68,1.11.03,2.22-.13,3.32-.22,4.26-.32,8.53-.63,12.74-.94Z"/><path class="cls-1" d="m99.73,67.63c.02,1.49-1.05,2.37-2.24,1.78-2.25-1.12-4.43-2.41-6.52-3.81-.41-.27-.52-1.47-.29-2.04.18-.43,1.32-.93,1.7-.73,2.38,1.21,4.68,2.59,6.98,3.96.26.16.3.68.37.84Z"/><path class="cls-1" d="m21.59,69.6c-.27-.23-.99-.55-1.1-1.02-.15-.59-.03-1.65.36-1.91,2.12-1.39,4.33-2.65,6.59-3.79.44-.22,1.61.12,1.81.52.28.57.27,1.85-.11,2.11-2.17,1.45-4.48,2.7-6.74,4-.13.07-.31.04-.8.09Z"/><path class="cls-1" d="m98.43,22.14c.35.31,1.06.65,1.16,1.11.12.6-.03,1.63-.44,1.9-2.13,1.38-4.34,2.65-6.62,3.76-.44.21-1.64-.32-1.9-.82-.25-.48.03-1.69.48-2,1.97-1.34,4.08-2.47,6.15-3.65.26-.15.61-.16,1.18-.3Z"/><path class="cls-1" d="m29.62,27.15c.07,1.42-1.06,2.34-2.26,1.75-2.2-1.07-4.34-2.31-6.38-3.67-.45-.3-.7-1.53-.46-2.04.23-.49,1.45-1.02,1.88-.81,2.27,1.11,4.44,2.43,6.61,3.74.35.21.47.78.61,1.03Z"/><path class="cls-1" d="m19.51,47.59c-1.03,0-2.06,0-3.1,0-1.19,0-2.09-.5-2.06-1.77.03-1.14.88-1.6,1.98-1.6,2.14,0,4.29-.01,6.43,0,1.08,0,1.91.44,1.93,1.63.02,1.16-.75,1.7-1.85,1.73-1.11.03-2.22,0-3.33,0Z"/><path class="cls-1" d="m31.29,76.39c-.47-.38-1.13-.66-1.33-1.15-.2-.48-.15-1.32.16-1.72.77-.99,1.69-1.88,2.65-2.7.74-.63,1.64-.63,2.34.11.72.75.62,1.59-.07,2.32-.76.8-1.53,1.59-2.35,2.33-.33.3-.79.46-1.39.79Z"/><path class="cls-1" d="m20.79,58.23c-.45-.45-1.27-.91-1.35-1.47-.08-.59.38-1.64.89-1.87,1.19-.55,2.54-.9,3.85-1,.55-.04,1.52.68,1.64,1.21.13.53-.39,1.58-.91,1.84-1.18.58-2.53.82-4.12,1.29Z"/><path class="cls-1" d="m24.4,38.16c-1.58-.44-2.73-.74-3.86-1.08-1-.3-1.38-1.05-1.19-2.02.2-1.03.95-1.47,1.94-1.27,1.23.25,2.51.49,3.62,1.04.52.26,1.08,1.32.94,1.84-.17.64-1.04,1.1-1.45,1.49Z"/><path class="cls-1" d="m90.25,74.41c.07,1.35-1.28,2.34-2.36,1.56-1.19-.86-2.28-1.95-3.15-3.14-.79-1.07.19-2.47,1.51-2.39,1.1.06,3.94,2.89,4,3.97Z"/><path class="cls-1" d="m35.57,19.83c-.02,1.23-1.57,2.07-2.62,1.27-1.11-.85-2.14-1.9-2.97-3.03-.79-1.08.14-2.49,1.46-2.44,1.12.04,4.14,3.11,4.12,4.2Z"/><path class="cls-1" d="m86.1,21.38c-1.01-.02-2.04-1.14-1.5-1.86,1.09-1.45,2.43-2.78,3.91-3.82.74-.52,1.79.57,1.76,1.61-.03,1.19-3.01,4.09-4.17,4.07Z"/></svg>